<svg id="Camada_1" data-name="Camada 1" xmlns="http://www.w3.org/2000/svg" viewBox="0 0 450 181.97"><defs><style>.cls-1{font-size:26.75px;}.cls-1,.cls-9{font-family:HelveticaRoundedLTStd-Bd, Helvetica Rounded LT Std;}.cls-1,.cls-15,.cls-9{font-weight:700;}.cls-2{letter-spacing:0em;}.cls-3{letter-spacing:-0.01em;}.cls-4{letter-spacing:0em;}.cls-5{letter-spacing:-0.09em;}.cls-6{letter-spacing:0em;}.cls-7{letter-spacing:0em;}.cls-8{letter-spacing:0em;}.cls-9{font-size:49.47px;}.cls-10{letter-spacing:-0.01em;}.cls-11{letter-spacing:0em;}.cls-12{letter-spacing:0em;}.cls-13{letter-spacing:-0.01em;}.cls-14{letter-spacing:-0.01em;}.cls-15{font-size:108.32px;font-family:HelveticaRoundedLTStd-BdCn, Helvetica Rounded LT Std;}</style></defs><title>logo-600px--horizontal--black</title><text class="cls-1" transform="translate(217.83 84.25) scale(0.98 1)"><tspan class="cls-2">F</tspan><tspan class="cls-3" x="16.74" y="0">R</tspan><tspan class="cls-4" x="36.42" y="0">ON</tspan><tspan class="cls-5" x="78.87" y="0">T</tspan><tspan class="cls-6" x="94.31" y="0">-</tspan><tspan class="cls-7" x="105.25" y="0">E</tspan><tspan class="cls-8" x="123.45" y="0">N</tspan><tspan x="144.21" y="0">D</tspan></text><text class="cls-9" transform="translate(215.83 126.38) scale(0.98 1)"><tspan class="cls-10">B</tspan><tspan class="cls-11" x="35.21" y="0">R</tspan><tspan class="cls-12" x="71.98" y="0">A</tspan><tspan class="cls-13" x="104.85" y="0">S</tspan><tspan class="cls-14" x="138.13" y="0">I</tspan><tspan x="153.18" y="0">L</tspan></text><text class="cls-15" transform="translate(416.54 126.27) scale(0.98 1)">}</text><path d="M145.35,28.27,124.61,49.35a7.67,7.67,0,0,1-10.94,0,8,8,0,0,1,0-11.12L127.5,24.17a88.8,88.8,0,0,0-12-.65L98.24,41.07a7.67,7.67,0,0,1-10.94,0h0A8,8,0,0,1,87.3,30l2.1-2.14A89.06,89.06,0,0,0,53.28,50.21a91,91,0,0,0-22,36.72l4.29-4.36a7.67,7.67,0,0,1,10.94,0h0a8,8,0,0,1,0,11.12L27,113.46a93.2,93.2,0,0,0,.64,12.19L80.13,72.32a7.67,7.67,0,0,1,10.94,0,8,8,0,0,1,0,11.12L31.68,143.79a91.51,91.51,0,0,0,3.95,9.95L155.14,32.28A88.36,88.36,0,0,0,145.35,28.27Zm-84.3,50.6a7.67,7.67,0,0,1-10.94,0h0a8,8,0,0,1,0-11.12l22.6-23a7.67,7.67,0,0,1,10.94,0h0a8,8,0,0,1,0,11.12Zm49-14.7-4.37,4.45a7.67,7.67,0,0,1-10.94,0,8,8,0,0,1,0-11.12l4.37-4.45a7.67,7.67,0,0,1,10.94,0A8,8,0,0,1,110,64.17Z" transform="translate(-27.01 -23.51)"/><path d="M158.21,54.6h0a8,8,0,0,1,0-11.12l6.08-6.18a88.83,88.83,0,0,0-9.08-5.09l-.07.07.25.12L35.75,154l-.12-.25-.07.07a91.17,91.17,0,0,0,5,9.23L106.44,96.1a7.67,7.67,0,0,1,10.94,0h0a8,8,0,0,1,0,11.12L50,175.68q1.49,1.67,3.08,3.29t3.24,3.13l21.43-21.78a7.67,7.67,0,0,1,10.94,0,8,8,0,0,1,0,11.12L68.77,191.69a88.83,88.83,0,0,0,9.08,5.09l.07-.07-.25-.12L197.31,75l.12.25.07-.07a91.17,91.17,0,0,0-5-9.23l-70.24,71.39a7.67,7.67,0,0,1-10.94,0,8,8,0,0,1,0-11.12L183,53.32Q181.55,51.65,180,50t-3.24-3.13l-7.58,7.7A7.67,7.67,0,0,1,158.21,54.6Zm-50.55,97.57-4.37,4.45a7.67,7.67,0,0,1-10.94,0,8,8,0,0,1,0-11.12l4.37-4.45a7.67,7.67,0,0,1,10.94,0A8,8,0,0,1,107.66,152.17ZM154.56,58.3a8,8,0,0,1,0,11.12l-22.6,23a7.67,7.67,0,0,1-10.94,0h0a8,8,0,0,1,0-11.12l22.6-23a7.67,7.67,0,0,1,10.94,0Z" transform="translate(-27.01 -23.51)"/><path d="M155.38,32.4l-.25-.12L35.63,153.74l.12.25Z" transform="translate(-27.01 -23.51)"/><path d="M87.71,200.73l8.83-9a7.67,7.67,0,0,1,10.94,0h0a8,8,0,0,1,0,11.12l-1.92,2a88.8,88.8,0,0,0,12,.65l10.1-10.26a7.67,7.67,0,0,1,10.94,0,7.94,7.94,0,0,1,2.14,6.86,89,89,0,0,0,39.05-23.29,91.06,91.06,0,0,0,22.46-38.13,7.66,7.66,0,0,1-8.24-1.77,8,8,0,0,1,0-11.12l12-12.24a93.2,93.2,0,0,0-.64-12.19L203,105.79a7.67,7.67,0,0,1-10.94,0h0a8,8,0,0,1,0-11.12l9.11-9.26.21-.19a91.51,91.51,0,0,0-4-10L77.92,196.72A88.36,88.36,0,0,0,87.71,200.73Zm102.65-47-37.19,37.79a7.67,7.67,0,0,1-10.94,0,8,8,0,0,1,0-11.12l37.19-37.79a7.67,7.67,0,0,1,10.94,0A8,8,0,0,1,190.35,153.71Zm-79.23,34.34a8,8,0,0,1,0-11.12l66.35-67.44a7.67,7.67,0,0,1,10.94,0h0a8,8,0,0,1,0,11.12l-66.35,67.44a7.67,7.67,0,0,1-10.94,0Z" transform="translate(-27.01 -23.51)"/><path d="M77.67,196.6l.25.12L197.42,75.26l-.12-.25Z" transform="translate(-27.01 -23.51)"/></svg>