<svg id="Camada_1" data-name="Camada 1" xmlns="http://www.w3.org/2000/svg" viewBox="0 0 449.57 179.04"><defs><style>.cls-1{fill:#317fdd;}.cls-2{fill:#188726;}.cls-3{fill:#f4d000;}</style></defs><title>logo-600px--horizontal--color</title><path class="cls-1" d="M245.23,91.68c0-1.92,1-2.53,2.53-2.53h9.5c1.26,0,2.18.37,2.18,1.74s-.92,1.74-2.18,1.74h-7.71v4.42h6.53c1.13,0,2,.32,2,1.66s-.9,1.66-2,1.66h-6.53v5.92a2.16,2.16,0,1,1-4.32,0Z" transform="translate(-25.3 -25.21)"/><path class="cls-1" d="M261.59,91.68c0-1.92,1-2.53,2.53-2.53h7.19c5.13,0,6.5,2.82,6.5,5.26A4.53,4.53,0,0,1,274.54,99V99c2.21.32,2.61,1.92,2.61,3.84,0,2.18.58,3,.58,3.9a1.91,1.91,0,0,1-2,1.68c-2.37,0-2.55-2.29-2.55-3.05,0-3.32-.61-4.66-3-4.66h-4.26v5.55a2.16,2.16,0,1,1-4.32,0Zm4.32,5.9h4.32c1.63,0,3.26-.42,3.26-2.55s-1.24-2.55-3.13-2.55h-4.45Z" transform="translate(-25.3 -25.21)"/><path class="cls-1" d="M289.7,88.71c6.21,0,9.58,4.13,9.58,9.69,0,5.34-3.11,10.16-9.58,10.16-6.79,0-9.58-4.42-9.58-10.16C280.11,92.84,283.48,88.71,289.7,88.71Zm0,16.37c3.92,0,5.26-3.05,5.26-6.69s-1.74-6.21-5.26-6.21-5.26,2.58-5.26,6.21S285.64,105.08,289.7,105.08Z" transform="translate(-25.3 -25.21)"/><path class="cls-1" d="M302.26,91.34c0-1.79.87-2.53,2.71-2.53a2.38,2.38,0,0,1,2.16,1.13l7.55,12.19h.05V90.89a2.08,2.08,0,0,1,4.16,0v14.87c0,1.71-.74,2.69-2.55,2.69-1.37,0-1.82-.29-2.37-1.16l-7.5-11.84h-.05v10.92a2.08,2.08,0,1,1-4.16,0Z" transform="translate(-25.3 -25.21)"/><path class="cls-1" d="M327.35,92.79h-4.08C322,92.79,321,92.15,321,91s1-1.82,2.24-1.82h12.48c1.24,0,2.24.63,2.24,1.82s-1,1.82-2.24,1.82h-4.08v13.5a2.16,2.16,0,1,1-4.32,0Z" transform="translate(-25.3 -25.21)"/><path class="cls-1" d="M343.44,99c1.18,0,2.13.47,2.13,1.82s-.95,1.82-2.13,1.82H339.1c-1.18,0-2.13-.47-2.13-1.82S337.91,99,339.1,99Z" transform="translate(-25.3 -25.21)"/><path class="cls-1" d="M348.78,91.68c0-1.92,1-2.53,2.53-2.53h10.13c1.26,0,2.18.37,2.18,1.74s-.92,1.74-2.18,1.74H353.1v4.11h7.32c1.13,0,2,.32,2,1.66s-.89,1.66-2,1.66H353.1v4.58h8.55c1.26,0,2.18.37,2.18,1.74s-.92,1.74-2.18,1.74H351.31c-1.53,0-2.53-.61-2.53-2.53Z" transform="translate(-25.3 -25.21)"/><path class="cls-1" d="M366.51,91.34c0-1.79.87-2.53,2.71-2.53a2.38,2.38,0,0,1,2.16,1.13l7.55,12.19H379V90.89a2.08,2.08,0,0,1,4.16,0v14.87c0,1.71-.74,2.69-2.55,2.69-1.37,0-1.82-.29-2.37-1.16l-7.5-11.84h-.05v10.92a2.08,2.08,0,1,1-4.16,0Z" transform="translate(-25.3 -25.21)"/><path class="cls-1" d="M387,91.68c0-1.92,1-2.53,2.53-2.53h5.26c4.71,0,9,2.05,9,9.48,0,6-3.34,9.48-9.11,9.48h-5.19c-1.53,0-2.53-.61-2.53-2.53Zm4.32,13H395c3.45,0,4.55-3.08,4.55-6,0-3.74-1.42-6-4.58-6h-3.61Z" transform="translate(-25.3 -25.21)"/><path class="cls-1" d="M244.83,119.18c0-3.55,1.85-4.67,4.67-4.67h10.61c5.84,0,12.8,1.31,12.8,9.05a7.47,7.47,0,0,1-4.92,7.11v.1c3.7,1,6.13,3.6,6.13,8.42,0,7.35-6,10.37-12.9,10.37H249.5c-2.82,0-4.67-1.12-4.67-4.67Zm8,9.74h6.57c3.75,0,5.55-1.51,5.55-4.28,0-3.36-2.82-4.28-5.79-4.28h-6.33Zm0,14.51h6.72c3.12,0,6.62-.63,6.62-4.67,0-4.24-3.7-4.77-7.59-4.77h-5.74Z" transform="translate(-25.3 -25.21)"/><path class="cls-1" d="M279.47,119.18c0-3.55,1.85-4.67,4.67-4.67h13.29c9.49,0,12,5.21,12,9.73,0,3.8-2.24,7.54-6,8.42v.1c4.09.58,4.82,3.55,4.82,7.11,0,4,1.07,5.55,1.07,7.2,0,1.85-1.9,3.12-3.75,3.12-4.38,0-4.72-4.23-4.72-5.65,0-6.13-1.12-8.62-5.5-8.62h-7.88V146.2a4,4,0,0,1-8,0Zm8,10.9h8c3,0,6-.78,6-4.72,0-3.75-2.29-4.72-5.79-4.72h-8.23Z" transform="translate(-25.3 -25.21)"/><path class="cls-1" d="M323.49,116.31c.68-1.8,1.95-2.43,3.89-2.43h1.9a3.94,3.94,0,0,1,4.28,2.92l9.64,26.82a10.93,10.93,0,0,1,.78,3.07,3.64,3.64,0,0,1-3.75,3.5c-1.75,0-3-.63-3.6-2.19l-2-5.84H321.73L319.64,148c-.54,1.56-1.65,2.19-3.55,2.19a3.4,3.4,0,0,1-3.7-3.5,10.93,10.93,0,0,1,.78-3.07Zm4.82,6.23h-.1l-4.72,14.07h9.35Z" transform="translate(-25.3 -25.21)"/><path class="cls-1" d="M366.34,129.26c7.3,1.66,9.15,6,9.15,10.08,0,6.33-4.77,11-14.41,11-10.12,0-14.65-5.06-14.65-8.86a3.21,3.21,0,0,1,3.36-3.31c4.33,0,3.21,6.33,11.29,6.33,4.14,0,6.42-2.29,6.42-4.62,0-1.41-.68-3-3.41-3.65l-9-2.29c-7.25-1.85-8.57-5.84-8.57-9.59,0-7.79,7.2-10.71,14-10.71,6.23,0,13.58,3.5,13.58,8.18,0,2-1.7,3.16-3.65,3.16-3.7,0-3-5.21-10.46-5.21-3.7,0-5.74,1.7-5.74,4.14s2.92,3.21,5.45,3.8Z" transform="translate(-25.3 -25.21)"/><path class="cls-1" d="M380.74,117.87a4,4,0,1,1,8,0V146.2a4,4,0,0,1-8,0Z" transform="translate(-25.3 -25.21)"/><path class="cls-1" d="M395.54,117.87a4,4,0,1,1,8,0v25h13.34c2.29,0,4.14,1.17,4.14,3.36s-1.85,3.36-4.14,3.36H400.21c-2.82,0-4.67-1.12-4.67-4.67Z" transform="translate(-25.3 -25.21)"/><path class="cls-1" d="M466,107.67c0,6.5,2.13,7.14,4.48,7.14,3,0,4.37,2.66,4.37,5.11S473.48,125,470.5,125c-2.34,0-4.48.64-4.48,7.14v22.17c0,9.91-4.37,14.17-12.57,14.17h-6.93c-2.45,0-4.26-1.6-4.26-5.12s1.81-5.12,4.26-5.12h2.34c2.56,0,4.16-1.92,4.16-6.29V131c0-9.91,6.82-10.66,10.12-11v-.21c-3.3-.32-10.12-1.07-10.12-11v-21c0-4.37-1.6-6.29-4.16-6.29h-2.34c-2.45,0-4.26-1.6-4.26-5.12s1.81-5.12,4.26-5.12h6.93c8.21,0,12.57,4.26,12.57,14.17Z" transform="translate(-25.3 -25.21)"/><path class="cls-2" d="M143.64,29.89,122.9,50.63A7.73,7.73,0,0,1,112,39.7L125.8,25.86a90.23,90.23,0,0,0-12-.64L96.53,42.49a7.76,7.76,0,0,1-10.94,0h0a7.76,7.76,0,0,1,0-10.94l2.1-2.1A89.83,89.83,0,0,0,29.53,87.61l4.29-4.29a7.76,7.76,0,0,1,10.94,0h0a7.76,7.76,0,0,1,0,10.94L25.31,113.71a90.23,90.23,0,0,0,.64,12L78.42,73.24A7.73,7.73,0,0,1,89.36,84.17L30,143.56a89.18,89.18,0,0,0,3.95,9.79L153.43,33.84A89.18,89.18,0,0,0,143.64,29.89ZM59.34,79.68a7.76,7.76,0,0,1-10.94,0h0a7.76,7.76,0,0,1,0-10.94L71,46.14a7.76,7.76,0,0,1,10.94,0h0a7.76,7.76,0,0,1,0,10.94Zm49-14.46-4.37,4.37A7.73,7.73,0,1,1,93,58.65l4.37-4.37a7.73,7.73,0,1,1,10.94,10.94Z" transform="translate(-25.3 -25.21)"/><path class="cls-3" d="M156.5,55.8h0a7.76,7.76,0,0,1,0-10.94l6.08-6.08a89.25,89.25,0,0,0-9.08-5l-.07.07.25.12L34,153.59l-.12-.25-.07.07a89.25,89.25,0,0,0,5,9.08l65.87-65.87a7.76,7.76,0,0,1,10.94,0h0a7.76,7.76,0,0,1,0,10.94L48.31,174.93q1.49,1.65,3.08,3.24t3.24,3.08l21.43-21.43A7.73,7.73,0,1,1,87,170.76L67.06,190.69a89.25,89.25,0,0,0,9.08,5l.07-.07-.25-.12L195.6,75.88l.12.25.07-.07a89.25,89.25,0,0,0-5-9.08l-70.24,70.24a7.73,7.73,0,1,1-10.94-10.94l71.74-71.74q-1.49-1.65-3.08-3.24T175,48.22l-7.58,7.58A7.76,7.76,0,0,1,156.5,55.8Zm-50.55,96-4.37,4.37a7.73,7.73,0,0,1-10.94-10.94L95,140.86a7.73,7.73,0,0,1,10.94,10.94Zm46.91-92.36a7.76,7.76,0,0,1,0,10.94L130.25,93a7.76,7.76,0,0,1-10.94,0h0a7.76,7.76,0,0,1,0-10.94l22.6-22.6a7.76,7.76,0,0,1,10.94,0Z" transform="translate(-25.3 -25.21)"/><path class="cls-3" d="M153.68,34l-.25-.12L33.92,153.34l.12.25Z" transform="translate(-25.3 -25.21)"/><path class="cls-1" d="M86,199.58l8.83-8.83a7.76,7.76,0,0,1,10.94,0h0a7.76,7.76,0,0,1,0,10.94l-1.92,1.92a90.23,90.23,0,0,0,12,.64l10.1-10.1A7.72,7.72,0,0,1,139,200.9a89.82,89.82,0,0,0,61.51-60.42,7.73,7.73,0,0,1-8.24-12.68l12-12a90.23,90.23,0,0,0-.64-12l-2.41,2.41a7.76,7.76,0,0,1-10.94,0h0a7.76,7.76,0,0,1,0-10.94l9.11-9.11.21-.19a89.19,89.19,0,0,0-4-9.8L76.21,195.63A89.18,89.18,0,0,0,86,199.58Zm102.65-46.26L151.46,190.5a7.73,7.73,0,1,1-10.94-10.94l37.19-37.19a7.73,7.73,0,0,1,10.94,10.94ZM109.41,187.1a7.76,7.76,0,0,1,0-10.94l66.35-66.35a7.76,7.76,0,0,1,10.94,0h0a7.76,7.76,0,0,1,0,10.94L120.35,187.1a7.76,7.76,0,0,1-10.94,0Z" transform="translate(-25.3 -25.21)"/><path class="cls-1" d="M76,195.52l.25.12L195.72,76.13l-.12-.25Z" transform="translate(-25.3 -25.21)"/></svg>