<svg id="Camada_1" data-name="Camada 1" xmlns="http://www.w3.org/2000/svg" viewBox="0 0 400 539.76"><defs><style>.cls-1{fill:#317fdd;}.cls-2{fill:#188726;}.cls-3{fill:#f4d000;}</style></defs><title>logo-600px--vertical--color</title><path class="cls-1" d="M120.29,444.34c0-4.11,2.14-5.4,5.4-5.4H146c2.7,0,4.67.79,4.67,3.71s-2,3.71-4.67,3.71H129.52v9.45h14c2.42,0,4.33.67,4.33,3.55s-1.91,3.55-4.33,3.55h-14v12.66a4.62,4.62,0,0,1-9.23,0Z" transform="translate(-100 -30.12)"/><path class="cls-1" d="M155.52,444.34c0-4.11,2.14-5.4,5.4-5.4h15.36c11,0,13.9,6,13.9,11.25,0,4.39-2.59,8.72-7,9.74V460c4.73.68,5.57,4.11,5.57,8.22,0,4.67,1.24,6.41,1.24,8.33,0,2.14-2.2,3.6-4.33,3.6-5.07,0-5.46-4.89-5.46-6.53,0-7.09-1.29-10-6.36-10h-9.12v11.88a4.62,4.62,0,0,1-9.23,0Zm9.23,12.61H174c3.49,0,7-.9,7-5.46,0-4.33-2.65-5.46-6.7-5.46h-9.51Z" transform="translate(-100 -30.12)"/><path class="cls-1" d="M215.87,438c13.28,0,20.49,8.84,20.49,20.71,0,11.43-6.64,21.72-20.49,21.72-14.52,0-20.49-9.46-20.49-21.72C195.39,446.82,202.59,438,215.87,438Zm0,35c8.39,0,11.25-6.53,11.25-14.29s-3.71-13.28-11.25-13.28-11.25,5.52-11.25,13.28S207.21,473,215.87,473Z" transform="translate(-100 -30.12)"/><path class="cls-1" d="M243,443.61c0-3.83,1.86-5.4,5.8-5.4a5.09,5.09,0,0,1,4.61,2.42l16.15,26.06h.11v-24c0-3,1.69-4.45,4.45-4.45s4.45,1.46,4.45,4.45v31.8c0,3.66-1.58,5.74-5.46,5.74-2.93,0-3.88-.62-5.07-2.48l-16-25.32h-.11v23.36c0,3-1.69,4.44-4.44,4.44s-4.45-1.46-4.45-4.44Z" transform="translate(-100 -30.12)"/><path class="cls-1" d="M296.91,446.71h-8.72c-2.64,0-4.78-1.35-4.78-3.88s2.14-3.88,4.78-3.88h26.67c2.64,0,4.78,1.35,4.78,3.88s-2.14,3.88-4.78,3.88h-8.72v28.87a4.61,4.61,0,1,1-9.23,0Z" transform="translate(-100 -30.12)"/><path class="cls-1" d="M331.66,460c2.53,0,4.56,1,4.56,3.88s-2,3.88-4.56,3.88h-9.29c-2.53,0-4.56-1-4.56-3.88s2-3.88,4.56-3.88Z" transform="translate(-100 -30.12)"/><path class="cls-1" d="M343.32,444.34c0-4.11,2.14-5.4,5.4-5.4h21.67c2.7,0,4.67.79,4.67,3.71s-2,3.71-4.67,3.71H352.55v8.78H368.2c2.42,0,4.33.68,4.33,3.55s-1.91,3.55-4.33,3.55H352.55V472h18.29c2.7,0,4.67.79,4.67,3.71s-2,3.71-4.67,3.71H348.72c-3.26,0-5.4-1.29-5.4-5.4Z" transform="translate(-100 -30.12)"/><path class="cls-1" d="M381.48,443.61c0-3.83,1.86-5.4,5.8-5.4a5.09,5.09,0,0,1,4.61,2.42L408,466.68h.11v-24c0-3,1.69-4.45,4.45-4.45s4.45,1.46,4.45,4.45v31.8c0,3.66-1.58,5.74-5.46,5.74-2.93,0-3.88-.62-5.07-2.48l-16-25.32h-.11v23.36c0,3-1.69,4.44-4.45,4.44s-4.44-1.46-4.44-4.44Z" transform="translate(-100 -30.12)"/><path class="cls-1" d="M425.57,444.34c0-4.11,2.14-5.4,5.4-5.4h11.25c10.07,0,19.3,4.39,19.3,20.26,0,12.83-7.15,20.26-19.47,20.26H431c-3.26,0-5.4-1.29-5.4-5.4ZM434.8,472h7.77c7.37,0,9.74-6.59,9.74-12.83,0-8-3-12.83-9.79-12.83H434.8Z" transform="translate(-100 -30.12)"/><path class="cls-1" d="M119.44,503.16c0-7.6,4-10,10-10h22.69c12.49,0,27.38,2.81,27.38,19.36A16,16,0,0,1,169,527.72v.21c7.91,2.08,13.12,7.7,13.12,18,0,15.72-12.8,22.17-27.59,22.17H129.43c-6,0-10-2.39-10-10ZM136.51,524h14.05c8,0,11.87-3.23,11.87-9.16,0-7.18-6-9.16-12.39-9.16H136.51Zm0,31h14.37c6.66,0,14.16-1.35,14.16-10,0-9.06-7.91-10.2-16.24-10.2H136.51Z" transform="translate(-100 -30.12)"/><path class="cls-1" d="M194.3,503.16c0-7.6,4-10,10-10h28.42c20.3,0,25.71,11.14,25.71,20.82,0,8.12-4.79,16.13-12.91,18v.21c8.74,1.25,10.31,7.6,10.31,15.2,0,8.64,2.29,11.87,2.29,15.41,0,4-4.06,6.66-8,6.66-9.37,0-10.1-9.06-10.1-12.08,0-13.12-2.39-18.43-11.76-18.43H211.37v22c0,5.1-3.33,8.54-8.54,8.54s-8.54-3.44-8.54-8.54Zm17.07,23.32h17.07c6.45,0,12.91-1.67,12.91-10.1,0-8-4.89-10.1-12.39-10.1H211.37Z" transform="translate(-100 -30.12)"/><path class="cls-1" d="M289.16,497c1.46-3.85,4.16-5.2,8.33-5.2h4.06c3.85,0,7.29.94,9.16,6.25l20.61,57.36A23.36,23.36,0,0,1,333,562a7.79,7.79,0,0,1-8,7.49c-3.75,0-6.45-1.35-7.7-4.68l-4.37-12.49H285.41l-4.48,12.49c-1.15,3.33-3.54,4.68-7.6,4.68-4.68,0-7.91-2.91-7.91-7.49a23.36,23.36,0,0,1,1.67-6.56Zm10.31,13.32h-.21l-10.1,30.08h20Z" transform="translate(-100 -30.12)"/><path class="cls-1" d="M381.56,524.7c15.61,3.54,19.57,12.8,19.57,21.55,0,13.53-10.2,23.63-30.81,23.63-21.65,0-31.33-10.83-31.33-18.95a6.86,6.86,0,0,1,7.18-7.08c9.26,0,6.87,13.53,24.15,13.53,8.85,0,13.74-4.89,13.74-9.89,0-3-1.46-6.35-7.29-7.81l-19.26-4.89c-15.51-4-18.32-12.49-18.32-20.51,0-16.66,15.41-22.9,29.88-22.9,13.32,0,29,7.49,29,17.49,0,4.27-3.64,6.77-7.81,6.77-7.91,0-6.45-11.14-22.38-11.14-7.91,0-12.28,3.64-12.28,8.85s6.25,6.87,11.66,8.12Z" transform="translate(-100 -30.12)"/><path class="cls-1" d="M413.13,500.34c0-5.1,3.33-8.54,8.54-8.54s8.54,3.44,8.54,8.54v60.58c0,5.1-3.33,8.54-8.54,8.54s-8.54-3.44-8.54-8.54Z" transform="translate(-100 -30.12)"/><path class="cls-1" d="M445.56,500.34c0-5.1,3.33-8.54,8.54-8.54s8.54,3.44,8.54,8.54v53.4h28.52c4.89,0,8.85,2.5,8.85,7.18s-4,7.18-8.85,7.18h-35.6c-6,0-10-2.39-10-10Z" transform="translate(-100 -30.12)"/><path class="cls-2" d="M353.11,40.12,308.75,84.48a16.54,16.54,0,0,1-23.39-23.39L314.95,31.5a193,193,0,0,0-25.66-1.37L252.35,67.07a16.59,16.59,0,0,1-23.39,0h0a16.59,16.59,0,0,1,0-23.39l4.5-4.5a192.13,192.13,0,0,0-124.4,124.4l9.18-9.18a16.59,16.59,0,0,1,23.39,0h0a16.59,16.59,0,0,1,0,23.39L100,219.4a193,193,0,0,0,1.37,25.66L213.62,132.83A16.54,16.54,0,0,1,237,156.22l-127,127a190.75,190.75,0,0,0,8.44,20.93L374,48.56A190.75,190.75,0,0,0,353.11,40.12ZM172.82,146.6a16.59,16.59,0,0,1-23.39,0h0a16.59,16.59,0,0,1,0-23.39l48.34-48.34a16.59,16.59,0,0,1,23.39,0h0a16.59,16.59,0,0,1,0,23.39Zm104.74-30.93L268.21,125a16.54,16.54,0,1,1-23.39-23.39l9.36-9.36a16.54,16.54,0,1,1,23.39,23.39Z" transform="translate(-100 -30.12)"/><path class="cls-3" d="M380.62,95.53h0a16.59,16.59,0,0,1,0-23.39l13-13a190.9,190.9,0,0,0-19.43-10.72l-.14.14.53.25L118.69,304.69l-.25-.53-.14.14A190.9,190.9,0,0,0,129,323.73L269.9,182.86a16.59,16.59,0,0,1,23.39,0h0a16.59,16.59,0,0,1,0,23.39L149.21,350.33q3.19,3.52,6.59,6.93t6.93,6.59L208.56,318a16.54,16.54,0,0,1,23.39,23.39L189.32,384a190.9,190.9,0,0,0,19.43,10.72l.14-.14-.53-.25L464.24,138.48l.25.53.14-.14a190.9,190.9,0,0,0-10.72-19.43L303.68,269.67a16.54,16.54,0,0,1-23.39-23.39L433.73,92.84q-3.19-3.52-6.59-6.93t-6.93-6.59L404,95.53A16.59,16.59,0,0,1,380.62,95.53ZM272.49,300.86l-9.36,9.36a16.54,16.54,0,1,1-23.39-23.39l9.36-9.36a16.54,16.54,0,0,1,23.39,23.39ZM372.82,103.33a16.59,16.59,0,0,1,0,23.39l-48.34,48.34a16.59,16.59,0,0,1-23.39,0h0a16.59,16.59,0,0,1,0-23.39l48.34-48.34a16.59,16.59,0,0,1,23.39,0Z" transform="translate(-100 -30.12)"/><path class="cls-3" d="M374.58,48.81l-.53-.25-255.6,255.6.25.53Z" transform="translate(-100 -30.12)"/><path class="cls-1" d="M229.82,403l18.89-18.89a16.59,16.59,0,0,1,23.39,0h0a16.59,16.59,0,0,1,0,23.39L268,411.67A193,193,0,0,0,293.65,413l21.6-21.6a16.51,16.51,0,0,1,28,14.44A192.1,192.1,0,0,0,474.79,276.64a16.53,16.53,0,0,1-17.63-27.11l25.76-25.76a193,193,0,0,0-1.37-25.66l-5.16,5.16a16.59,16.59,0,0,1-23.39,0h0a16.59,16.59,0,0,1,0-23.39l19.49-19.49c.14-.14.3-.27.45-.4a190.75,190.75,0,0,0-8.45-21l-255.6,255.6A190.75,190.75,0,0,0,229.82,403Zm219.54-98.94-79.53,79.53a16.54,16.54,0,0,1-23.39-23.39L426,280.72a16.54,16.54,0,0,1,23.39,23.39ZM279.9,376.36a16.59,16.59,0,0,1,0-23.39L421.81,211.06a16.59,16.59,0,0,1,23.39,0h0a16.59,16.59,0,0,1,0,23.39L303.29,376.36a16.59,16.59,0,0,1-23.39,0Z" transform="translate(-100 -30.12)"/><path class="cls-1" d="M208.36,394.36l.53.25L464.49,139l-.25-.53Z" transform="translate(-100 -30.12)"/></svg>