<svg id="Camada_1" data-name="Camada 1" xmlns="http://www.w3.org/2000/svg" viewBox="0 0 400 400"><defs><style>.cls-1{fill:#188726;}.cls-2{fill:#f4d000;}.cls-3{fill:#317fdd;}</style></defs><title>symbol-600px--color</title><path class="cls-1" d="M364.39,110.45l-46.34,46.34a17.28,17.28,0,0,1-24.43-24.43l30.91-30.91A201.59,201.59,0,0,0,297.72,100L259.14,138.6a17.33,17.33,0,0,1-24.43,0h0a17.33,17.33,0,0,1,0-24.43l4.7-4.7A200.69,200.69,0,0,0,109.46,239.41l9.59-9.59a17.33,17.33,0,0,1,24.43,0h0a17.33,17.33,0,0,1,0,24.43L100,297.72a201.59,201.59,0,0,0,1.43,26.81L218.69,207.29a17.28,17.28,0,0,1,24.43,24.43L110.45,364.39a199.25,199.25,0,0,0,8.81,21.86l267-267A199.25,199.25,0,0,0,364.39,110.45ZM176.06,221.67a17.33,17.33,0,0,1-24.43,0h0a17.33,17.33,0,0,1,0-24.43l50.5-50.5a17.33,17.33,0,0,1,24.43,0h0a17.33,17.33,0,0,1,0,24.43Zm109.41-32.31-9.77,9.77a17.28,17.28,0,0,1-24.43-24.43l9.77-9.77a17.28,17.28,0,0,1,24.43,24.43Z" transform="translate(-100 -100)"/><path class="cls-2" d="M393.12,168.33h0a17.33,17.33,0,0,1,0-24.43l13.58-13.58a199.4,199.4,0,0,0-20.29-11.2l-.15.15.56.26L119.52,386.81l-.26-.56-.15.15a199.4,199.4,0,0,0,11.2,20.29L277.47,259.55a17.33,17.33,0,0,1,24.43,0h0a17.33,17.33,0,0,1,0,24.43L151.4,434.48q3.34,3.68,6.88,7.24t7.24,6.88l47.87-47.87a17.28,17.28,0,1,1,24.43,24.43L193.3,469.68a199.4,199.4,0,0,0,20.29,11.2l.15-.15-.56-.26L480.48,213.19l.26.56.15-.15a199.4,199.4,0,0,0-11.2-20.29L312.76,350.23a17.28,17.28,0,1,1-24.43-24.43L448.6,165.52q-3.34-3.68-6.88-7.24t-7.24-6.88l-16.92,16.92A17.33,17.33,0,0,1,393.12,168.33ZM280.18,382.81l-9.77,9.77A17.28,17.28,0,1,1,246,368.14l9.77-9.77a17.28,17.28,0,1,1,24.43,24.43ZM385,176.47a17.33,17.33,0,0,1,0,24.43l-50.5,50.5a17.33,17.33,0,0,1-24.43,0h0A17.33,17.33,0,0,1,310,227l50.5-50.5a17.33,17.33,0,0,1,24.43,0Z" transform="translate(-100 -100)"/><path class="cls-2" d="M386.81,119.52l-.56-.26-267,267,.26.56Z" transform="translate(-100 -100)"/><path class="cls-3" d="M235.61,489.55l19.73-19.73a17.33,17.33,0,0,1,24.43,0h0a17.33,17.33,0,0,1,0,24.43l-4.3,4.3A201.59,201.59,0,0,0,302.28,500l22.56-22.56a17.25,17.25,0,0,1,29.22,15.08,200.66,200.66,0,0,0,137.43-135,17.26,17.26,0,0,1-18.42-28.32L500,302.28a201.59,201.59,0,0,0-1.43-26.81l-5.39,5.39a17.33,17.33,0,0,1-24.43,0h0a17.33,17.33,0,0,1,0-24.43l20.36-20.36c.15-.15.31-.28.47-.42a199.25,199.25,0,0,0-8.83-21.9l-267,267A199.25,199.25,0,0,0,235.61,489.55ZM464.93,386.2l-83.08,83.08a17.28,17.28,0,1,1-24.43-24.43l83.08-83.08a17.28,17.28,0,0,1,24.43,24.43Zm-177,75.47a17.33,17.33,0,0,1,0-24.43L436.15,289a17.33,17.33,0,0,1,24.43,0h0a17.33,17.33,0,0,1,0,24.43L312.35,461.67a17.33,17.33,0,0,1-24.43,0Z" transform="translate(-100 -100)"/><path class="cls-3" d="M213.19,480.48l.56.26,267-267-.26-.56Z" transform="translate(-100 -100)"/></svg>